<?xml version="1.0" encoding="UTF-8" standalone="no"?><svg xmlns="http://www.w3.org/2000/svg" xmlns:xlink="http://www.w3.org/1999/xlink" version="1.1" id="Layer_1" x="0px" y="0px" viewBox="0 0 40 40" xml:space="preserve" width="40" height="40"><path d="M17.5 38.498V37.5h1c3.598 0 7-3.405 7-7.006-.006-1.566.608-2.977 1.73-3.976 2.2-1.958 3.27-4.418 3.27-7.521 0-2.987-1.278-5.842-3.507-7.833-1.955-1.746-4.369-2.668-6.979-2.668-.406 0-.822.024-1.236.07-4.715.533-8.579 4.331-9.188 9.033a9.943 9.943 0 0 1-.044.306c-.036.216-.046.34-.046.593v1h-1v-1c0-.394.018-.505.053-.717l.045-.302c.667-5.16 4.9-9.323 10.068-9.906.431-.048.868-.073 1.3-.073 2.854 0 5.587 1.037 7.694 2.92a11.518 11.518 0 0 1 3.84 8.578c0 3.356-1.213 6.138-3.604 8.268-.904.804-1.4 1.941-1.396 3.202 0 4.202-3.813 8.03-8 8.03h-1z" fill="#8BB7F0"/><path d="M18.891 8.052c-.056.006-.113.011-.169.018-3.95.446-7.329 3.079-8.852 6.633 1.522-3.554 4.902-6.187 8.851-6.633.057-.007.113-.013.17-.018m-9.8 9.511a9.704 9.704 0 0 1-.036.246l.036-.246M9 18.497v.5-.5m22 .426v0m-5 11.53v0M19.966 7c-.451 0-.903.025-1.356.076-5.395.609-9.813 4.954-10.507 10.33l-.041.277c-.041.247-.062.366-.062.814v1.5h2v-1.5c0-.217.008-.323.036-.492.015-.092.031-.193.05-.342.579-4.476 4.258-8.093 8.748-8.6.392-.044.789-.067 1.18-.067 2.486 0 4.784.879 6.646 2.541a10.015 10.015 0 0 1 3.34 7.46c0 2.951-1.015 5.289-3.102 7.147-1.231 1.095-1.905 2.64-1.898 4.349C25 33.84 21.841 37 18.5 37H17v1.997h1.5c4.448 0 8.5-4.051 8.5-8.532-.004-1.115.432-2.119 1.228-2.827C30.73 25.411 32 22.503 32 18.997a12.02 12.02 0 0 0-4.007-8.951A12.049 12.049 0 0 0 19.966 7z" fill="#4E7AB5"/><circle cx="20" cy="20" r="1" fill="#4E7AB5"/><circle cx="16" cy="24" r="1" fill="#4E7AB5"/><circle cx="8" cy="32" r="1" fill="#4E7AB5"/><circle cx="4" cy="36" r="1" fill="#4E7AB5"/><path transform="matrix(0.7071 -0.7071 0.7071 0.7071 -16.0772 16.1863)" fill="#8BB7F0" d="M11.25 23.05h.5v8.9h-.5z"/><path fill="#4E7AB5" d="M8.53 23.47l-1.06 1.06 7 7 1.06-1.06-7-7z"/><path d="M34.825 12.369a20.053 20.053 0 0 0-6.153-7.488l.283-.45a17.207 17.207 0 0 1 6.328 7.768l-.458.17z" fill="#8BB7F0"/><path d="M28.802 3.736L28 5.012A19.596 19.596 0 0 1 34.565 13l1.369-.509a17.7 17.7 0 0 0-7.132-8.755z" fill="#4E7AB5"/><g><path d="M38.795 10.293a22.045 22.045 0 0 0-7.737-9.138l.28-.463.179.115a21.028 21.028 0 0 1 7.826 9.263l-.548.223z" fill="#8BB7F0"/><path d="M31.173 0l-.793 1.309c.042.027.085.052.127.08a21.528 21.528 0 0 1 8.028 9.55L40 10.342A21.532 21.532 0 0 0 31.173 0z" fill="#4E7AB5"/></g><path d="M15 20v-1c0-2.75 2.25-5 5-5s5 2.25 5 5v1h2v-1c0-3.85-3.15-7-7-7s-7 3.15-7 7v1h2z" fill="#4E7AB5"/><metadata><rdf:RDF xmlns:rdf="http://www.w3.org/1999/02/22-rdf-syntax-ns#" xmlns:rdfs="http://www.w3.org/2000/01/rdf-schema#" xmlns:dc="http://purl.org/dc/elements/1.1/"><rdf:Description about="https://iconscout.com/legal#licenses" dc:title="listen" dc:description="listen" dc:publisher="Iconscout" dc:date="2017-10-29" dc:format="image/svg+xml" dc:language="en"><dc:creator><rdf:Bag><rdf:li>Icons8</rdf:li></rdf:Bag></dc:creator></rdf:Description></rdf:RDF></metadata></svg>