<svg xmlns="http://www.w3.org/2000/svg" viewBox="0 0 50 50"><g id="open_ear" fill="#616161" data-name="open ear"><path d="M28,33a1.9,1.9,0,0,1-.76-.15,3.48,3.48,0,0,1-1.71-2.38,5.89,5.89,0,0,0-2.39-3,7.6,7.6,0,0,1-2.32-2.53A6.26,6.26,0,0,1,20,22a5,5,0,0,1,10,0h2a7,7,0,0,0-14,0A8.28,8.28,0,0,0,19,25.9a9.53,9.53,0,0,0,2.85,3.15A4,4,0,0,1,23.6,31.1a5.44,5.44,0,0,0,2.73,3.55A4,4,0,0,0,32,31H30A2,2,0,0,1,28,33ZM18.61,15.64l-1.42-1.42a11,11,0,0,0,0,15.56l1.41-1.41a9,9,0,0,1,0-12.73ZM22.47,22A2.5,2.5,0,1,0,25,19.5,2.5,2.5,0,0,0,22.47,22Z"/></g></svg>